<?xml version="1.0" standalone="no"?><!DOCTYPE svg PUBLIC "-//W3C//DTD SVG 1.1//EN" "http://www.w3.org/Graphics/SVG/1.1/DTD/svg11.dtd"><svg t="1591173120497" class="icon" viewBox="0 0 1024 1024" version="1.1" xmlns="http://www.w3.org/2000/svg" p-id="2801" xmlns:xlink="http://www.w3.org/1999/xlink" width="48" height="48"><defs><style type="text/css"></style></defs><path d="M0.787692 512c0 281.993846 229.218462 511.212308 511.212308 511.212308 282.781538 0 511.212308-228.430769 511.212308-511.212308C1023.212308 230.006154 793.993846 0.787692 512 0.787692 229.218462 0.787692 0.787692 230.006154 0.787692 512" fill="#95A5BB" p-id="2802"></path><path d="M623.852308 697.107692c-4.726154-2.363077-37.021538-16.541538-16.541539-75.618461 51.2-52.775385 91.372308-137.846154 91.372308-221.341539 0-128.393846-85.858462-196.135385-185.107692-196.135384-100.036923 0-185.107692 67.741538-185.107693 196.135384 0 83.495385 38.596923 169.353846 91.372308 222.916923 20.48 52.775385-16.541538 72.467692-23.630769 75.618462-103.975385 37.809231-226.855385 106.338462-226.855385 174.867692v18.116923c89.796923 80.344615 211.101538 131.544615 343.433846 131.544616 133.12 0 253.636923-51.2 345.009231-133.907693v-18.116923c-0.787692-70.104615-123.667692-138.633846-233.944615-174.08" fill="#ECF1F9" p-id="2803"></path></svg>