<?xml version="1.0" standalone="no"?><!DOCTYPE svg PUBLIC "-//W3C//DTD SVG 1.1//EN" "http://www.w3.org/Graphics/SVG/1.1/DTD/svg11.dtd"><svg t="1591866079339" class="icon" viewBox="0 0 1024 1024" version="1.1" xmlns="http://www.w3.org/2000/svg" p-id="2398" xmlns:xlink="http://www.w3.org/1999/xlink" width="200" height="200"><defs><style type="text/css"></style></defs><path d="M672.768 654.9504c0-14.4384 11.776-26.2144 26.2144-26.2144h149.8112l63.7952-110.2848-200.192-346.112h-400.384l-200.192 346.112 196.9152 340.48H672.768V654.9504zM512.1024 695.296c-97.792 0-176.8448-78.5408-176.8448-176.8448 0-98.2016 79.0528-176.8448 176.8448-176.8448 97.792 0 176.8448 78.5408 176.8448 176.8448 1.3312 96.8704-77.7216 176.8448-176.8448 176.8448z" p-id="2399" data-spm-anchor-id="a313x.7781069.0.i7" class="selected" fill="#047AFB"></path><path d="M956.928 715.6736h-233.472c-13.312 0-24.064-10.752-24.064-24.064v-7.0656c0-13.312 10.752-24.064 24.064-24.064h233.472c13.312 0 24.064 10.752 24.064 24.064v7.0656c0 13.312-10.752 24.064-24.064 24.064zM956.928 800.256h-233.472c-13.312 0-24.064-10.752-24.064-24.064v-7.0656c0-13.312 10.752-24.064 24.064-24.064h233.472c13.312 0 24.064 10.752 24.064 24.064v7.0656c0 13.312-10.752 24.064-24.064 24.064zM956.928 884.8384h-233.472c-13.312 0-24.064-10.752-24.064-24.064v-7.0656c0-13.312 10.752-24.064 24.064-24.064h233.472c13.312 0 24.064 10.752 24.064 24.064v7.0656c0 13.312-10.752 24.064-24.064 24.064z" p-id="2400" data-spm-anchor-id="a313x.7781069.0.i8" class="selected" fill="#047AFB"></path></svg>