<?xml version="1.0" standalone="no"?><!DOCTYPE svg PUBLIC "-//W3C//DTD SVG 1.1//EN" "http://www.w3.org/Graphics/SVG/1.1/DTD/svg11.dtd"><svg t="1592217278442" class="icon" viewBox="0 0 1024 1024" version="1.1" xmlns="http://www.w3.org/2000/svg" p-id="6081" xmlns:xlink="http://www.w3.org/1999/xlink" width="200" height="200"><defs><style type="text/css"></style></defs><path d="M896.224 282.304h-12.192c-4.224 0-8 0.48-11.744 0.96a8.224 8.224 0 0 1-9.888-8 81.984 81.984 0 0 0-82.176-82.208h-1.92a81.984 81.984 0 0 0-82.176 82.208v173.312H327.872V275.744a81.984 81.984 0 0 0-82.208-82.24h-1.888a81.984 81.984 0 0 0-82.176 82.24 8.224 8.224 0 0 1-9.888 8 47.68 47.68 0 0 0-11.744-0.96h-12.192a60.96 60.96 0 0 0-62.016 61.536v330.208a61.44 61.44 0 0 0 61.536 61.536h12.224c2.816 0 5.152 0 8-0.48 7.04-0.96 13.6 4.704 13.6 12.224a81.984 81.984 0 0 0 82.208 82.208h1.856a81.984 81.984 0 0 0 82.24-82.24v-171.424h367.776v171.456a81.984 81.984 0 0 0 82.208 82.208h1.856a81.984 81.984 0 0 0 82.24-82.24c0-7.488 6.56-13.12 13.6-12.16 2.816 0.448 5.152 0.448 8 0.448h12.192a61.44 61.44 0 0 0 61.536-61.536v-330.24a60.16 60.16 0 0 0-60.608-61.984z" p-id="6082" data-spm-anchor-id="a313x.7781069.0.i0" class="" fill="#047AFB"></path></svg>