<?xml version="1.0" standalone="no"?><!DOCTYPE svg PUBLIC "-//W3C//DTD SVG 1.1//EN" "http://www.w3.org/Graphics/SVG/1.1/DTD/svg11.dtd"><svg t="1591866146645" class="icon" viewBox="0 0 1024 1024" version="1.1" xmlns="http://www.w3.org/2000/svg" p-id="2897" xmlns:xlink="http://www.w3.org/1999/xlink" width="200" height="200"><defs><style type="text/css"></style></defs><path d="M794.1 157.8s-75.3 90.7-114.3 103.8c-137.2 46.1-194.9-41.6-310-55.7-98.9-12.1-144.4 33.7-161 57.6-8.6 8.9-12.7 21.9-9.7 34.9l121.5 516c4.1 17.3 19.5 29 36.6 29 2.9 0 5.8-0.3 8.7-1 20.2-4.8 32.7-25 28-45.3l-44.6-189.3c25.7-12.9 61.8-21.4 111.5-15.3 50.2 6.2 201.5 45.2 295.7-72.7 111.8-139.7 37.6-362 37.6-362z" p-id="2898" fill="#047AFB"></path></svg>