<?xml version="1.0" standalone="no"?><!DOCTYPE svg PUBLIC "-//W3C//DTD SVG 1.1//EN" "http://www.w3.org/Graphics/SVG/1.1/DTD/svg11.dtd"><svg t="1592217505252" class="icon" viewBox="0 0 1024 1024" version="1.1" xmlns="http://www.w3.org/2000/svg" p-id="6853" xmlns:xlink="http://www.w3.org/1999/xlink" width="200" height="200"><defs><style type="text/css"></style></defs><path d="M1010.688 945.152l-286.208-286.208c55.296-69.632 88.576-157.184 88.576-252.928C812.544 182.272 630.272 0 406.528 0 182.272 0 0 182.272 0 406.528c0 224.256 182.272 406.528 406.528 406.528 95.232 0 183.296-33.28 252.928-88.576l286.208 286.208c9.216 9.216 20.992 13.312 32.768 13.312s23.552-4.608 32.768-13.312c17.408-18.432 17.408-47.104-0.512-65.536z m-604.16-224.768c-173.056 0-314.368-140.8-314.368-314.368S232.96 92.16 406.528 92.16s314.368 140.8 314.368 314.368-141.312 313.856-314.368 313.856z" p-id="6854" fill="#047AFB"></path></svg>