<?xml version="1.0" standalone="no"?><!DOCTYPE svg PUBLIC "-//W3C//DTD SVG 1.1//EN" "http://www.w3.org/Graphics/SVG/1.1/DTD/svg11.dtd"><svg t="1592401832666" class="icon" viewBox="0 0 1024 1024" version="1.1" xmlns="http://www.w3.org/2000/svg" p-id="4556" xmlns:xlink="http://www.w3.org/1999/xlink" width="200" height="200"><defs><style type="text/css"></style></defs><path d="M107.78947344 78.43368406h318.31578937c30.31578937 0 50.52631594 20.21052656 50.52631594 50.52631594v318.31578938c0 30.31578937-20.21052656 50.52631594-50.52631594 50.52631593H107.78947344c-30.31578937 0-50.52631594-20.21052656-50.52631594-50.52631594v-318.31578937c0-30.31578937 20.21052656-50.52631594 50.52631594-50.52631594zM107.78947344 568.53894781h318.31578937c30.31578937 0 50.52631594 20.21052656 50.52631594 50.526315v318.31578938c0 30.31578937-20.21052656 50.52631594-50.52631594 50.52631593H107.78947344c-30.31578937 0-50.52631594-20.21052656-50.52631594-50.52631593v-318.31578938c0-30.31578937 20.21052656-50.52631594 50.52631594-50.526315zM597.89473719 78.43368406H916.21052656c30.31578937 0 50.52631594 20.21052656 50.52631594 50.52631594v318.31578938c0 30.31578937-20.21052656 50.52631594-50.52631594 50.52631593h-318.31578937c-30.31578937 0-50.52631594-20.21052656-50.52631594-50.52631594v-318.31578937c0-30.31578937 20.21052656-50.52631594 50.52631594-50.52631594zM597.89473719 568.53894781H916.21052656c30.31578937 0 50.52631594 20.21052656 50.52631594 50.526315v318.31578938c0 30.31578937-20.21052656 50.52631594-50.52631594 50.52631593h-318.31578937c-30.31578937 0-50.52631594-20.21052656-50.52631594-50.52631593v-318.31578938c0-30.31578937 20.21052656-50.52631594 50.52631594-50.526315z" p-id="4557" fill="#707070"></path></svg>