<?xml version="1.0" standalone="no"?><!DOCTYPE svg PUBLIC "-//W3C//DTD SVG 1.1//EN" "http://www.w3.org/Graphics/SVG/1.1/DTD/svg11.dtd"><svg t="1591865381007" class="icon" viewBox="0 0 1024 1024" version="1.1" xmlns="http://www.w3.org/2000/svg" p-id="2089" xmlns:xlink="http://www.w3.org/1999/xlink" width="200" height="200"><defs><style type="text/css"></style></defs><path d="M511.181355 230.735082c-49.547463 0-89.713254 40.165792-89.713254 89.713254s40.165792 89.713254 89.713254 89.713254c49.547463 0 89.713254-40.165792 89.713254-89.713254s-40.165792-89.713254-89.713254-89.713254z m0-168.018692c153.084561 0 277.184997 104.160291 277.184997 282.416138 0 118.836549-92.39534 226.423893-277.184997 322.761008-184.789657-96.337115-277.184997-203.923436-277.184997-322.761008 0.001023-178.25687 124.100436-282.416138 277.184997-282.416138zM276.121781 556.147476c48.125067 59.002812 121.621988 113.749694 219.601511 164.44019l15.459086 7.998161 15.459087-7.998161c97.978499-50.690496 171.476443-105.437377 219.60151-164.44019l4.991688-0.010233c34.269501 0 65.544809 19.522636 80.596619 50.309826l109.649306 224.282113c21.76163 44.512796 3.318582 98.238418-41.194214 119.999024a89.707115 89.707115 0 0 1-39.402405 9.116635H161.480788c-49.547463 0-89.713254-40.165792-89.713254-89.713254a89.703021 89.703021 0 0 1 9.116635-39.402405L190.533474 606.448092c15.051811-30.78719 46.327118-50.309826 80.59662-50.309826l4.991687 0.00921z" p-id="2090" data-spm-anchor-id="a313x.7781069.0.i4" class="" fill="#047AFB"></path></svg>