<?xml version="1.0" standalone="no"?><!DOCTYPE svg PUBLIC "-//W3C//DTD SVG 1.1//EN" "http://www.w3.org/Graphics/SVG/1.1/DTD/svg11.dtd"><svg t="1592217556138" class="icon" viewBox="0 0 1024 1024" version="1.1" xmlns="http://www.w3.org/2000/svg" p-id="8286" xmlns:xlink="http://www.w3.org/1999/xlink" width="200" height="200"><defs><style type="text/css"></style></defs><path d="M517.608727 62.673455c-248.599273 0-450.164364 195.165091-450.164364 435.898182s201.565091 435.874909 450.164364 435.874909c248.622545 0 450.141091-195.141818 450.141091-435.874909S766.231273 62.673455 517.608727 62.673455L517.608727 62.673455zM799.394909 539.461818 517.236364 539.461818c-8.494545 0-15.965091-3.816727-21.061818-9.704727-4.119273-4.654545-6.702545-10.612364-6.702545-17.175273l0-0.256c0-0.046545-0.023273-0.069818-0.023273-0.116364 0-0.046545 0.023273-0.093091 0.023273-0.162909l-0.023273-272.663273c0.023273-14.848 12.637091-26.833455 28.183273-26.833455 15.522909 0 28.113455 12.008727 28.113455 26.833455l0 245.573818 253.626182 0c15.313455 0 27.764364 12.171636 27.694545 27.252364C827.089455 527.220364 814.708364 539.461818 799.394909 539.461818L799.394909 539.461818z" p-id="8287" fill="#047AFB"></path></svg>