<?xml version="1.0" standalone="no"?><!DOCTYPE svg PUBLIC "-//W3C//DTD SVG 1.1//EN" "http://www.w3.org/Graphics/SVG/1.1/DTD/svg11.dtd"><svg t="1591866214862" class="icon" viewBox="0 0 1024 1024" version="1.1" xmlns="http://www.w3.org/2000/svg" p-id="3739" xmlns:xlink="http://www.w3.org/1999/xlink" width="200" height="200"><defs><style type="text/css"></style></defs><path d="M512 512m-512 0a512 512 0 1 0 1024 0 512 512 0 1 0-1024 0Z" fill="#047AFB" p-id="3740" data-spm-anchor-id="a313x.7781069.0.i13" class=""></path><path d="M691.4048 273.408h-64.443733L554.461867 407.005867c-19.319467 36.181333-31.1296 60.2112-35.498667 72.157866h-1.2288c-12.6976-29.013333-48.7424-97.621333-107.9296-205.755733h-68.1984l126.7712 217.770667H364.544V539.306667h121.787733v66.3552H364.544v48.7424h121.787733V750.933333h60.484267V654.404267h117.5552v-48.7424H546.747733V539.306667h117.5552v-48.128H563.4048l128-217.770667z" fill="#FFFFFF" p-id="3741"></path></svg>