<?xml version="1.0" standalone="no"?><!DOCTYPE svg PUBLIC "-//W3C//DTD SVG 1.1//EN" "http://www.w3.org/Graphics/SVG/1.1/DTD/svg11.dtd"><svg t="1592624644664" class="icon" viewBox="0 0 1024 1024" version="1.1" xmlns="http://www.w3.org/2000/svg" p-id="3358" xmlns:xlink="http://www.w3.org/1999/xlink" width="200" height="200"><defs><style type="text/css"></style></defs><path d="M333.380797 510.156923a273.617314 273.617314 0 1 1 273.389774 0.967047 429.368709 429.368709 0 0 1 111.039708 55.747394 229.92956 229.92956 0 0 0-163.203342 219.860898c0 51.367242 16.894874 98.923183 45.451192 137.036198H42.754839a42.606937 42.606937 0 0 1-42.663823-42.663823v-1.934093c0-1.535898 0.22754-3.01491 0.455081-4.550808 18.203231-171.508566 162.805146-312.981801 332.777815-364.462813z m352.858254 446.548008a196.253583 196.253583 0 1 1 196.253583-339.945337 196.253583 196.253583 0 0 1-196.253583 340.002222z m0.967046-252.683599a19.568473 19.568473 0 0 0 0 39.193831h195.741618a19.568473 19.568473 0 1 0 0-39.193831H687.206097z m0 78.330778a19.568473 19.568473 0 1 0 0 39.136946h156.604671a19.568473 19.568473 0 0 0 0-39.136946H687.206097z m0 78.330778a19.568473 19.568473 0 0 0 0 39.136946h117.467725a19.568473 19.568473 0 0 0 0-39.136946H687.206097z" p-id="3359" fill="#707070"></path></svg>